<svg width="49" height="49" viewBox="0 0 49 49" fill="none" xmlns="http://www.w3.org/2000/svg">
<path d="M17.03 25.37C15.45 25.37 14.16 24.85 13.16 23.81C12.16 22.77 11.66 21.35 11.66 19.55C11.66 18.37 11.89 17.34 12.35 16.46C12.81 15.58 13.44 14.91 14.24 14.45C15.06 13.97 15.99 13.73 17.03 13.73C18.63 13.73 19.93 14.26 20.93 15.32C21.93 16.36 22.43 17.77 22.43 19.55C22.43 21.35 21.93 22.77 20.93 23.81C19.93 24.85 18.63 25.37 17.03 25.37ZM29.45 14H33.77L19.43 35H15.11L29.45 14ZM17.03 22.52C17.57 22.52 18 22.28 18.32 21.8C18.64 21.32 18.8 20.57 18.8 19.55C18.8 18.53 18.64 17.78 18.32 17.3C18 16.82 17.57 16.58 17.03 16.58C16.51 16.58 16.08 16.83 15.74 17.33C15.42 17.81 15.26 18.55 15.26 19.55C15.26 20.55 15.42 21.3 15.74 21.8C16.08 22.28 16.51 22.52 17.03 22.52ZM31.85 35.27C30.25 35.27 28.95 34.75 27.95 33.71C26.97 32.67 26.48 31.25 26.48 29.45C26.48 27.67 26.98 26.26 27.98 25.22C28.98 24.16 30.27 23.63 31.85 23.63C33.45 23.63 34.75 24.16 35.75 25.22C36.75 26.26 37.25 27.67 37.25 29.45C37.25 31.25 36.75 32.67 35.75 33.71C34.75 34.75 33.45 35.27 31.85 35.27ZM31.85 32.42C32.39 32.42 32.82 32.18 33.14 31.7C33.46 31.22 33.62 30.47 33.62 29.45C33.62 28.43 33.46 27.68 33.14 27.2C32.82 26.72 32.39 26.48 31.85 26.48C31.31 26.48 30.88 26.72 30.56 27.2C30.24 27.68 30.08 28.43 30.08 29.45C30.08 30.47 30.24 31.22 30.56 31.7C30.88 32.18 31.31 32.42 31.85 32.42Z" fill="white"/>
<circle cx="24.5" cy="24.5" r="23.5" stroke="white"/>
</svg>
